<svg width="19" height="21" viewBox="0 0 19 21" fill="none" xmlns="http://www.w3.org/2000/svg">
<path d="M16.59 4.14349L10.65 0.713491C10.1707 0.438288 9.62768 0.293472 9.075 0.293472C8.52233 0.293472 7.97929 0.438288 7.5 0.713491L1.57 4.14349C1.09171 4.42069 0.694815 4.81891 0.41922 5.29813C0.143625 5.77735 -0.000958347 6.32068 4.78052e-06 6.87349V13.7135C0.00155116 14.2658 0.147194 14.8082 0.422541 15.2869C0.697887 15.7657 1.0934 16.1644 1.57 16.4435L7.51 19.8735C7.98929 20.1487 8.53233 20.2935 9.085 20.2935C9.63768 20.2935 10.1807 20.1487 10.66 19.8735L16.6 16.4435C17.0783 16.1663 17.4752 15.7681 17.7508 15.2889C18.0264 14.8096 18.171 14.2663 18.17 13.7135V6.87349C18.1657 6.32057 18.0177 5.77826 17.7408 5.29969C17.4638 4.82113 17.0673 4.42272 16.59 4.14349ZM8.33 6.04349C8.33 5.84458 8.40902 5.65381 8.54967 5.51316C8.69033 5.37251 8.88109 5.29349 9.08 5.29349C9.27892 5.29349 9.46968 5.37251 9.61033 5.51316C9.75099 5.65381 9.83 5.84458 9.83 6.04349V11.2935C9.83 11.4924 9.75099 11.6832 9.61033 11.8238C9.46968 11.9645 9.27892 12.0435 9.08 12.0435C8.88109 12.0435 8.69033 11.9645 8.54967 11.8238C8.40902 11.6832 8.33 11.4924 8.33 11.2935V6.04349ZM10 14.9235C9.94928 15.0446 9.87826 15.1562 9.79 15.2535C9.65011 15.3934 9.47149 15.4882 9.27721 15.5256C9.08292 15.5631 8.88187 15.5414 8.7 15.4635C8.57762 15.4152 8.46561 15.3439 8.37 15.2535C8.28201 15.154 8.208 15.043 8.15 14.9235C8.10184 14.8027 8.07805 14.6735 8.08 14.5435C8.07924 14.2778 8.18347 14.0226 8.37 13.8335C8.46561 13.7431 8.57762 13.6718 8.7 13.6235C8.88212 13.5469 9.08283 13.526 9.27682 13.5634C9.47081 13.6007 9.64938 13.6947 9.79 13.8335C9.8804 13.9291 9.95168 14.0411 10 14.1635C10.0528 14.2832 10.0801 14.4126 10.0801 14.5435C10.0801 14.6743 10.0528 14.8038 10 14.9235Z" fill="#F1BB34"/>
</svg>
