<svg width="90" height="83" viewBox="0 0 90 83" fill="none" xmlns="http://www.w3.org/2000/svg">
<path d="M0.369036 41.482V41.0998C0.384679 41.0855 0.407123 41.0746 0.415284 41.0569C0.4847 40.925 0.588737 40.8144 0.716227 40.7372C0.843717 40.6599 0.989847 40.6188 1.13893 40.6182C1.7422 40.5414 2.34275 40.4462 2.94465 40.355C3.55676 40.2619 4.17363 40.1551 4.78982 40.0714C5.30823 40.0025 5.81292 39.8541 6.28608 39.6314C7.47598 39.068 8.62022 38.4129 9.70845 37.672C11.5388 36.3995 13.291 35.0181 14.9556 33.5355C16.5749 32.131 18.2052 30.7402 19.8218 29.3323C20.5258 28.7202 21.2222 28.0966 21.8955 27.4498C22.5947 26.7785 23.2945 26.1086 24.0372 25.4862C25.3217 24.3933 26.7417 23.4705 28.2621 22.7406C29.1381 22.3271 30.0427 21.9748 30.9336 21.5946C31.5709 21.3226 32.2191 21.0723 32.8421 20.771C34.0626 20.188 35.2027 19.4496 36.2338 18.5742C36.8654 18.0395 37.4634 17.4664 38.0246 16.8582C39.2269 15.5485 40.2422 14.0786 41.0416 12.4905C41.3898 11.7961 41.7156 11.0874 42.0053 10.3665C42.5331 9.05454 43.0255 7.72763 43.5336 6.40819C43.9124 5.37863 44.4083 4.39599 45.0115 3.47959C45.4854 2.77291 46.0911 2.16421 46.7954 1.6868C47.7442 1.0587 48.8323 0.672475 49.9648 0.561877C50.8176 0.4764 51.677 0.480959 52.5288 0.575479C53.3096 0.653013 54.0883 0.754351 54.8671 0.857049C56.2711 1.03348 57.6628 1.29674 59.0342 1.64531C60.3544 1.99729 61.6495 2.43741 62.9109 2.9627C63.7843 3.32974 64.6388 3.7406 65.4708 4.19372C66.0016 4.47648 66.511 4.79767 66.995 5.15473C67.9103 5.84505 68.7679 6.60886 69.559 7.43857C69.8456 7.73193 70.1269 8.03028 70.4031 8.33361C70.9982 8.98653 71.596 9.6374 72.1789 10.3019C72.5869 10.7637 72.9719 11.2425 73.3589 11.7199C73.7819 12.2414 74.2 12.7669 74.613 13.2965C74.9578 13.7358 75.2931 14.1806 75.6332 14.6254C75.9052 14.9859 76.1773 15.3477 76.4459 15.7136C76.9497 16.4051 77.4502 17.0988 77.9476 17.7948C77.9867 17.8578 78.0444 17.9072 78.1128 17.9361C78.1811 17.9649 78.2567 17.9719 78.3292 17.956C78.553 17.924 78.7788 17.9036 79.0039 17.8879C79.48 17.8478 79.9622 17.8145 80.441 17.7744C80.8212 17.7424 81.2013 17.7016 81.5815 17.6689C82.0039 17.6322 82.4276 17.6009 82.85 17.5642C83.4906 17.5057 84.1306 17.4377 84.772 17.3826C85.244 17.3418 85.7173 17.3207 86.1893 17.2799C87.1755 17.1949 88.1617 17.101 89.1465 17.0126C89.2557 16.9926 89.3684 17.0131 89.4634 17.0703C89.5585 17.1276 89.6294 17.2176 89.6627 17.3234C89.6763 17.3561 89.6913 17.3881 89.7056 17.42V17.5472C89.6821 17.6437 89.6335 17.7323 89.5647 17.804C89.4958 17.8757 89.4093 17.9279 89.3138 17.9553C89.0166 18.0695 88.7235 18.1933 88.4297 18.3137L86.0146 19.3012C85.2891 19.5982 84.5623 19.895 83.8341 20.1915C83.1982 20.45 82.5609 20.703 81.9257 20.9614C81.2115 21.252 80.4983 21.5447 79.786 21.8394C79.6316 21.9034 79.4793 21.9714 79.2834 22.0557C79.3847 22.1149 79.4405 22.1537 79.5017 22.1829C80.2317 22.5252 80.9624 22.8667 81.6937 23.2072C82.2256 23.4556 82.7577 23.7037 83.29 23.9512C83.9048 24.2391 84.5194 24.5277 85.1338 24.817C85.4739 24.9768 85.8139 25.1339 86.1492 25.3006C86.2409 25.3484 86.3135 25.4259 86.3553 25.5205C86.3971 25.615 86.4055 25.7209 86.3791 25.8209C86.3628 25.92 86.3113 26.0099 86.2342 26.0743C86.157 26.1386 86.0592 26.173 85.9588 26.1711C85.8528 26.1759 85.7466 26.1725 85.6412 26.1609C84.9805 26.0866 84.3202 26.0102 83.66 25.9317C82.7398 25.8243 81.8196 25.7141 80.8994 25.6087C79.9792 25.5033 79.0576 25.4046 78.1374 25.2992C77.947 25.2781 77.915 25.2992 77.8762 25.4835C77.7856 25.9338 77.6962 26.3847 77.6083 26.8363C77.424 27.8014 77.2437 28.7678 77.0574 29.7329C76.9962 30.0499 76.9894 30.0424 76.6792 30.0825C75.7039 30.2023 74.7818 30.5935 74.0179 31.2115C73.3945 31.7056 72.8877 32.3313 72.5339 33.0437C72.4561 33.2031 72.3453 33.344 72.2088 33.4572C72.0723 33.5703 71.9132 33.6531 71.7422 33.7001C71.4556 33.7889 71.1467 33.7735 70.8703 33.6565C70.5745 33.5396 70.2813 33.4144 69.9896 33.2872C68.8674 32.7989 67.7456 32.3094 66.6243 31.8189C66.455 31.7447 66.4475 31.7298 66.4795 31.5427C66.5298 31.2503 66.5856 30.9585 66.6372 30.666C66.8236 29.6146 67.0093 28.5631 67.1943 27.5117C67.2117 27.4697 67.2193 27.4242 67.2165 27.3788C67.2137 27.3334 67.2005 27.2893 67.1779 27.2498C67.048 27.3314 66.9249 27.411 66.8005 27.4872C66.1782 27.8653 65.5538 28.2414 64.9322 28.6209C64.3106 29.0004 63.708 29.3786 63.0877 29.7526C63.0274 29.7822 62.9786 29.831 62.949 29.8913C62.9195 29.9517 62.9108 30.0201 62.9245 30.0859C62.9734 30.443 63.0156 30.8014 63.0605 31.1591C63.1679 31.9936 63.2781 32.8281 63.3829 33.6627C63.5438 34.9535 63.7025 36.2458 63.859 37.5393C63.9147 37.9957 63.9698 38.4521 64.0256 38.9077C64.1163 39.6513 64.2088 40.3949 64.3031 41.1385C64.3146 41.1908 64.3064 41.2455 64.28 41.2921C64.2536 41.3386 64.211 41.3738 64.1602 41.3909C64.0922 41.4188 64.031 41.4494 63.9657 41.4766C63.5577 41.6473 63.1414 41.8166 62.7313 41.9894C61.773 42.3934 60.8168 42.8014 59.8578 43.2041C58.5143 43.769 57.1702 44.3324 55.8254 44.8942C54.651 45.387 53.4774 45.881 52.3044 46.3761C52.2418 46.4027 52.1745 46.4183 52.0827 46.4442C52.0657 46.3636 52.0537 46.282 52.0466 46.2C52.0303 45.3233 52.0181 44.4466 52.0031 43.57C51.9931 42.9765 51.9816 42.3827 51.9684 41.7887C51.965 41.618 51.9813 41.5847 52.1582 41.5385C52.4873 41.4548 52.8179 41.3786 53.1491 41.3025C54.3969 41.0163 55.6451 40.7309 56.8938 40.4462C57.1278 40.3925 57.1482 40.3591 57.1033 40.1265C57.0095 39.6402 56.9176 39.1539 56.8231 38.6683C56.7612 38.3487 56.698 38.0297 56.6313 37.7114C56.5919 37.5244 56.5687 37.5074 56.3899 37.5346C55.7886 37.6244 55.1867 37.7128 54.5862 37.8107C53.9367 37.9161 53.2906 38.0372 52.641 38.1413C51.3352 38.3514 50.028 38.5527 48.7222 38.7622C48.0101 38.8765 47.3001 39.0036 46.5873 39.1165C45.3787 39.3077 44.1688 39.4872 42.9609 39.681C42.1448 39.8116 41.3286 39.9633 40.5125 40.0959C39.4168 40.2734 38.3191 40.4394 37.2227 40.6135C36.4193 40.7404 35.6163 40.8699 34.8137 41.0018C33.8432 41.161 32.8754 41.3351 31.9028 41.4779C31.5818 41.5132 31.2851 41.6658 31.0697 41.9064C30.1297 42.9266 29.1619 43.9175 28.205 44.92C27.1268 46.0486 26.0483 47.1796 24.9697 48.3131C24.8878 48.4011 24.7822 48.4634 24.6657 48.4927C23.9747 48.675 23.2871 48.8674 22.5961 49.0483C21.1247 49.4333 19.6527 49.816 18.18 50.1964C17.9325 50.261 17.925 50.2753 17.9148 50.5269C17.8889 51.1617 17.8622 51.7965 17.8345 52.4313C17.7774 53.7806 17.7209 55.13 17.6652 56.4793C17.6571 56.5917 17.6724 56.7044 17.7101 56.8106C17.9597 57.4267 18.21 58.0429 18.4806 58.6469C18.7575 59.2665 19.0581 59.8752 19.3485 60.4893H13.277C13.2838 60.4213 13.2872 60.3485 13.2981 60.2792C13.4101 59.5669 13.5235 58.8548 13.6382 58.1429C13.7926 57.1799 13.9463 56.2161 14.1068 55.2544C14.147 55.025 14.1293 54.7891 14.0551 54.5682C13.681 53.4256 13.3165 52.2803 12.9499 51.1356C12.754 50.5235 12.5663 49.9073 12.363 49.2993C12.3307 49.2253 12.3208 49.1435 12.3343 49.0639C12.3478 48.9843 12.3843 48.9103 12.4391 48.8511C12.5446 48.728 12.633 48.5899 12.7268 48.4573C13.4416 47.4371 14.1551 46.417 14.8712 45.4009C15.699 44.2283 16.5341 43.0606 17.3618 41.888C17.9161 41.1025 18.4623 40.3108 19.0125 39.5219C19.1485 39.3247 19.1526 39.3233 18.9819 39.1512C17.8552 38.0177 16.7277 36.8842 15.5997 35.7506C15.3902 35.5405 15.3881 35.5425 15.1481 35.7119L9.42552 39.7477C8.03173 40.7334 6.63861 41.7182 5.24618 42.7021C5.18244 42.751 5.10827 42.7845 5.02946 42.7999C4.95065 42.8154 4.86933 42.8124 4.79186 42.7912C3.59009 42.526 2.38899 42.2594 1.18382 42.0111C1.01853 41.9968 0.859229 41.9423 0.719738 41.8525C0.580246 41.7627 0.464769 41.6402 0.383319 41.4956C0.383319 41.4895 0.373117 41.4861 0.367676 41.4813" fill="#F8C541"/>
<path d="M11.0505 73.2069H14.4994C15.1042 73.193 15.6924 73.405 16.1494 73.8013C16.3667 73.9733 16.5423 74.1921 16.663 74.4415C16.7837 74.6909 16.8464 74.9644 16.8464 75.2415C16.8464 75.5186 16.7837 75.792 16.663 76.0415C16.5423 76.2909 16.3667 76.5097 16.1494 76.6816C15.6924 77.078 15.1042 77.2899 14.4994 77.276H11.0505V73.2069ZM10.6955 72.49V72.4955H10.3214V81.6479H11.0505V77.9915H13.2514L15.7556 80.591C16.0485 80.9476 16.4044 81.2472 16.8057 81.4751C17.2976 81.5982 17.8053 81.6457 18.3115 81.6159V80.8984C17.9057 80.9218 17.4986 80.8898 17.1015 80.8032C16.7946 80.6181 16.5214 80.3821 16.2936 80.1054L14.2532 77.9929H14.5028C15.3044 78.0112 16.0828 77.723 16.6792 77.187C16.9614 76.9474 17.1881 76.6493 17.3436 76.3134C17.4991 75.9774 17.5797 75.6117 17.5797 75.2415C17.5797 74.8713 17.4991 74.5055 17.3436 74.1696C17.1881 73.8336 16.9614 73.5355 16.6792 73.296C16.0828 72.76 15.3044 72.4717 14.5028 72.49H10.6955ZM76.6352 72.49C75.8981 72.4623 75.1775 72.7134 74.6173 73.1933C74.3605 73.4161 74.156 73.6929 74.0186 74.0038C73.8811 74.3148 73.8141 74.6523 73.8222 74.9922C73.8103 75.2479 73.8514 75.5033 73.943 75.7424C74.0347 75.9814 74.1749 76.1989 74.3548 76.381C74.9976 76.8959 75.815 77.1416 76.6352 77.0666H78.6252C79.1686 77.0534 79.6952 77.2556 80.0902 77.6291C80.2842 77.8055 80.4383 78.0212 80.5425 78.2618C80.6466 78.5024 80.6983 78.7625 80.6942 79.0247C80.6993 79.2806 80.6485 79.5346 80.5452 79.7688C80.4419 80.0031 80.2887 80.2119 80.0963 80.3808C79.6971 80.7505 79.1684 80.9483 78.6245 80.9317H74.1902V81.6485H78.6245C79.3637 81.6689 80.0812 81.3978 80.6221 80.8936C80.883 80.6584 81.0902 80.3697 81.2296 80.0472C81.3689 79.7246 81.437 79.3759 81.4294 79.0247C81.4363 78.6675 81.3671 78.3129 81.2264 77.9846C81.0856 77.6562 80.8766 77.3616 80.6132 77.1203C80.0777 76.611 79.362 76.335 78.6232 76.3531H76.6332C76.0169 76.4164 75.399 76.2497 74.8982 75.8852C74.7808 75.7689 74.6897 75.6288 74.631 75.4742C74.5723 75.3197 74.5475 75.1544 74.5581 74.9895C74.5509 74.7445 74.599 74.5011 74.699 74.2773C74.799 74.0536 74.9482 73.8553 75.1355 73.6973C75.5565 73.3535 76.0887 73.1757 76.6318 73.1974H81.0601V72.488L76.6352 72.49ZM26.596 72.4826L23.5668 76.4273L20.5443 72.4826H19.6241L23.1988 77.1359V81.6479H23.9347V77.1359L27.5094 72.4826H26.596ZM37.4038 72.4826V73.1994H40.6371V81.6479H41.3744V73.1994H44.6049V72.4826H37.4038ZM69.651 72.4826L65.7607 80.9249L63.9605 77.0203L66.0498 72.4826H65.2418L63.5599 76.1443L61.8711 72.4826H61.0632L63.1525 77.0203L61.359 80.9249L57.4694 72.4826H56.6601L60.8843 81.6479H61.8242L63.5592 77.8909L65.2867 81.6479H66.2328L70.4577 72.4826H69.651ZM71.773 81.6479H72.5089V72.4826H71.7757L71.773 81.6479ZM29.5593 73.1933H33.0089C33.6169 73.1802 34.2078 73.3949 34.6656 73.7952C34.8817 73.9665 35.0561 74.1846 35.1757 74.4331C35.2952 74.6815 35.3569 74.9538 35.356 75.2296C35.356 75.5069 35.2941 75.7807 35.1746 76.031C35.0552 76.2813 34.8813 76.5018 34.6656 76.6762C34.2041 77.0686 33.6146 77.278 33.0089 77.2645H29.5593V73.1933ZM29.1914 72.4765V72.4826H28.8234V81.6479H29.5593V77.98H33.0089C33.8107 77.9987 34.5893 77.7101 35.1853 77.1733C35.4696 76.9352 35.6982 76.6376 35.8551 76.3015C36.0119 75.9655 36.0932 75.5991 36.0932 75.2282C36.0932 74.8573 36.0119 74.491 35.8551 74.1549C35.6982 73.8188 35.4696 73.5212 35.1853 73.2831C34.5896 72.7459 33.8108 72.4573 33.0089 72.4765H29.1914ZM83.7248 72.4703V76.0036C83.5438 76.0753 83.3811 76.1866 83.2487 76.3293C83.0441 76.5559 82.8755 76.8126 82.7488 77.0904L83.4248 77.3842C83.5044 77.2117 83.6064 77.0505 83.7282 76.9047V81.6472H89.6629V80.9304H84.4668V76.6361C84.6118 76.6531 84.7547 76.685 84.8932 76.7313C85.1249 76.8297 85.3575 76.9301 85.591 77.0326C85.8424 77.1615 86.1013 77.2751 86.3664 77.3726C86.6648 77.483 86.9806 77.5392 87.2988 77.5386C87.5464 77.5413 87.7921 77.495 88.0218 77.4026C88.2232 77.3197 88.4113 77.2076 88.5802 77.07C88.7388 76.9371 88.8841 76.789 89.0141 76.6279C89.1365 76.4694 89.2501 76.3171 89.3541 76.1668L88.7373 75.7703C88.6407 75.9113 88.5375 76.05 88.4278 76.1865C88.3283 76.3091 88.2184 76.4228 88.0993 76.5266C87.9885 76.6159 87.8643 76.6873 87.7314 76.7381C87.5541 76.8053 87.3651 76.8366 87.1756 76.83C86.9861 76.8235 86.7998 76.7793 86.6275 76.7C86.3849 76.612 86.1478 76.5096 85.9175 76.3933C85.6679 76.277 85.4169 76.1716 85.1612 76.0723C84.9382 75.9865 84.7042 75.9329 84.4661 75.9131V73.1865H89.6629V72.4697L83.7248 72.4703ZM1.67505 73.8074C1.23856 74.2284 0.891386 74.733 0.65426 75.2911C0.417135 75.8492 0.294922 76.4493 0.294922 77.0557C0.294922 77.6621 0.417135 78.2622 0.65426 78.8203C0.891386 79.3784 1.23856 79.883 1.67505 80.304C2.11334 80.7396 2.63447 81.0829 3.20768 81.3138C3.78089 81.5446 4.39455 81.6582 5.0124 81.6479C5.82168 81.652 6.61827 81.4467 7.32481 81.0521C8.00771 80.6801 8.58591 80.1422 9.00607 79.4878H8.10763C7.73888 79.9324 7.2768 80.2905 6.75419 80.5365C6.21161 80.8005 5.61577 80.9366 5.0124 80.9344C4.49066 80.9434 3.97251 80.8467 3.48909 80.6502C3.00568 80.4537 2.567 80.1615 2.19942 79.7911C1.83006 79.437 1.53615 79.0118 1.33537 78.5411C1.13458 78.0704 1.03108 77.564 1.03108 77.0523C1.03108 76.5406 1.13458 76.0342 1.33537 75.5635C1.53615 75.0928 1.83006 74.6676 2.19942 74.3135C2.56812 73.9455 3.00715 73.6555 3.49031 73.4609C3.97348 73.2662 4.4909 73.1708 5.01172 73.1804C5.61518 73.1777 6.21148 73.3111 6.75623 73.5707C7.27976 73.8181 7.74199 74.1783 8.10967 74.6256H9.00062C8.58219 73.9723 8.00645 73.4344 7.32617 73.0614C6.61948 72.667 5.82303 72.4616 5.01376 72.4649C4.39591 72.4546 3.78225 72.5682 3.20904 72.799C2.63583 73.0298 2.1147 73.3732 1.67641 73.8088M47.707 79.6517C47.0399 78.9473 46.6682 78.014 46.6682 77.0438C46.6682 76.0736 47.0399 75.1404 47.707 74.4359C48.3719 73.7155 49.2853 73.2742 50.2629 73.2008V80.8862C49.2849 80.8132 48.3712 80.3712 47.707 79.6497M50.9987 73.1987C51.9762 73.2725 52.8895 73.7138 53.5546 74.4339C54.2211 75.1386 54.5924 76.0718 54.5924 77.0418C54.5924 78.0117 54.2211 78.9449 53.5546 79.6497C52.8898 80.3702 51.9764 80.8116 50.9987 80.8848V73.1987ZM50.2629 71.9697V72.4812C49.0931 72.5551 47.9955 73.0725 47.1941 73.9278C46.3854 74.7625 45.9332 75.8792 45.9332 77.0414C45.9332 78.2037 46.3854 79.3203 47.1941 80.155C47.9947 81.0115 49.0927 81.5292 50.2629 81.6016V82.1144H50.9981V81.6016C52.1696 81.5278 53.2691 81.0106 54.0729 80.155C54.8779 79.3197 55.3277 78.2049 55.3277 77.0448C55.3277 75.8848 54.8779 74.7699 54.0729 73.9346C53.2703 73.0766 52.1705 72.5573 50.9981 72.4826V71.9711L50.2629 71.9697Z" fill="#F8C541"/>
</svg>
