<svg width="6" height="5" viewBox="0 0 6 5" fill="none" xmlns="http://www.w3.org/2000/svg">
<path d="M0.952122 5.00061L4.52212 5.00061C4.68922 5.00033 4.85331 4.95611 4.99793 4.8724C5.14255 4.78869 5.26262 4.66842 5.34609 4.52366C5.42956 4.3789 5.47351 4.21474 5.47351 4.04764C5.47352 3.88054 5.42959 3.71637 5.34612 3.57161L4.45512 2.02361L3.55512 0.47561C3.47192 0.331042 3.35208 0.210959 3.20768 0.12746C3.06328 0.0439611 2.89942 -3.30328e-06 2.73262 -3.30527e-06C2.56582 -3.30726e-06 2.40196 0.0439611 2.25757 0.12746C2.11317 0.210959 1.99333 0.331042 1.91012 0.47561L1.01012 2.02361L0.128122 3.57161C0.0443368 3.71632 0.000147196 3.88056 3.78396e-07 4.04777C-0.000146439 4.21499 0.0437547 4.3793 0.127286 4.52416C0.210817 4.66902 0.33103 4.78933 0.475829 4.87297C0.620628 4.95661 0.784903 5.00063 0.952122 5.00061Z" fill="#F8C541"/>
</svg>
