<svg width="38" height="39" viewBox="0 0 38 39" fill="none" xmlns="http://www.w3.org/2000/svg">
<path d="M26.9902 38.1103H11.2974C4.47636 38.1103 0.40332 34.0303 0.40332 27.1973V11.5043C0.40332 4.68234 4.47636 0.610343 11.2974 0.610343H27.0103C28.4703 0.536211 29.9307 0.753872 31.3057 1.2506C32.6806 1.74733 33.943 2.51317 35.0186 3.50334C36.0041 4.57934 36.7647 5.84106 37.2568 7.2147C37.7489 8.58833 37.9623 10.0463 37.8843 11.5033V27.2173C37.8843 34.0383 33.8122 38.1103 26.9902 38.1103ZM19.4902 21.1103C14.4772 21.1103 10.3994 24.4743 10.3994 28.6103C10.3994 28.743 10.4521 28.8701 10.5459 28.9639C10.6397 29.0577 10.7668 29.1103 10.8994 29.1103H28.0781C28.2107 29.1103 28.3379 29.0577 28.4316 28.9639C28.5254 28.8701 28.5781 28.743 28.5781 28.6103C28.5831 24.4733 24.5032 21.1103 19.4932 21.1103H19.4902ZM19.4902 8.61034C18.1646 8.61167 16.8934 9.13888 15.9561 10.0763C15.0187 11.0137 14.4916 12.2847 14.4902 13.6103C14.4918 14.9359 15.0192 16.2068 15.9565 17.1441C16.8939 18.0815 18.1646 18.6088 19.4902 18.6103C20.8158 18.6088 22.0866 18.0815 23.0239 17.1441C23.9613 16.2068 24.4886 14.9359 24.4902 13.6103C24.4889 12.2852 23.9621 11.0146 23.0254 10.0773C22.0886 9.14002 20.8183 8.61246 19.4932 8.61034H19.4902Z" fill="url(#paint0_linear_1_411)"/>
<defs>
<linearGradient id="paint0_linear_1_411" x1="0.40332" y1="0.596191" x2="36.1926" y2="38.0937" gradientUnits="userSpaceOnUse">
<stop stop-color="#16B8EE"/>
<stop offset="1" stop-color="#A336F7"/>
</linearGradient>
</defs>
</svg>
