<svg width="20" height="20" viewBox="0 0 20 20" fill="none" xmlns="http://www.w3.org/2000/svg">
<path d="M6.0498 8.14005V9.30005H9.3098V6.05005H8.1498C7.59458 6.05004 7.06195 6.26992 6.6684 6.66158C6.27486 7.05325 6.05245 7.58483 6.0498 8.14005Z" fill="white"/>
<path d="M6.0498 11.86C6.05243 12.4134 6.27347 12.9435 6.66486 13.3349C7.05624 13.7263 7.58631 13.9473 8.1398 13.95H9.2998V10.7H6.0498V11.86Z" fill="white"/>
<path d="M10.7002 13.95H11.8602C12.4137 13.9473 12.9438 13.7263 13.3351 13.3349C13.7265 12.9435 13.9476 12.4134 13.9502 11.86V10.7H10.7002V13.95Z" fill="white"/>
<path d="M14.19 0H5.81C2.17 0 0 2.17 0 5.81V14.18C0 17.83 2.17 20 5.81 20H14.18C17.82 20 19.99 17.83 19.99 14.19V5.81C20 2.17 17.83 0 14.19 0ZM15.35 11.86C15.3474 12.7848 14.9788 13.671 14.3249 14.3249C13.671 14.9788 12.7848 15.3474 11.86 15.35H8.14C7.21464 15.3492 6.3274 14.9813 5.67307 14.3269C5.01874 13.6726 4.65079 12.7854 4.65 11.86V8.14C4.65264 7.21521 5.02118 6.32904 5.67511 5.67511C6.32904 5.02118 7.21521 4.65264 8.14 4.65H11.86C12.7854 4.65079 13.6726 5.01874 14.3269 5.67307C14.9813 6.3274 15.3492 7.21464 15.35 8.14V11.86Z" fill="white"/>
<path d="M11.8602 6.05005H10.7002V9.31005H13.9602V8.15005C13.9568 7.59415 13.7344 7.06198 13.3414 6.66889C12.9483 6.2758 12.4161 6.05346 11.8602 6.05005Z" fill="white"/>
</svg>
