<svg width="22" height="22" viewBox="0 0 22 22" fill="none" xmlns="http://www.w3.org/2000/svg">
<path d="M20.9902 14C20.9902 15.8565 20.2527 17.637 18.94 18.9497C17.6272 20.2625 15.8467 21 13.9902 21L15.0402 19.25" stroke="white" stroke-width="1.5" stroke-linecap="round" stroke-linejoin="round"/>
<path d="M0.990234 8C0.990234 6.14348 1.72773 4.36301 3.04049 3.05025C4.35324 1.7375 6.13372 1 7.99023 1L6.94023 2.75" stroke="white" stroke-width="1.5" stroke-linecap="round" stroke-linejoin="round"/>
<path d="M20.9902 3.2V3.31C20.9902 3.44261 20.9376 3.56979 20.8438 3.66355C20.75 3.75732 20.6228 3.81 20.4902 3.81H11.4902C11.3576 3.81 11.2304 3.75732 11.1367 3.66355C11.0429 3.56979 10.9902 3.44261 10.9902 3.31V3.2C10.9902 1.44 11.4302 1 13.2102 1H18.7702C20.5502 1 20.9902 1.44 20.9902 3.2Z" fill="white"/>
<path d="M11.4902 4.81006C11.3576 4.81006 11.2304 4.86274 11.1367 4.95651C11.0429 5.05027 10.9902 5.17745 10.9902 5.31006V7.30006C10.9902 9.06006 11.4302 9.50006 13.2102 9.50006H18.7702C20.5502 9.50006 20.9902 9.06006 20.9902 7.30006V5.31006C20.9902 5.17745 20.9376 5.05027 20.8438 4.95651C20.75 4.86274 20.6228 4.81006 20.4902 4.81006H11.4902Z" fill="white"/>
<path d="M10.9902 14.7V14.81C10.9902 14.9426 10.9376 15.0698 10.8438 15.1636C10.75 15.2573 10.6228 15.31 10.4902 15.31H1.49023C1.35763 15.31 1.23045 15.2573 1.13668 15.1636C1.04291 15.0698 0.990234 14.9426 0.990234 14.81V14.7C0.990234 12.94 1.43023 12.5 3.21023 12.5H8.77023C10.5502 12.5 10.9902 12.94 10.9902 14.7Z" fill="white"/>
<path d="M1.49023 16.3101C1.35763 16.3101 1.23045 16.3627 1.13668 16.4565C1.04291 16.5503 0.990234 16.6775 0.990234 16.8101L0.990234 18.8001C0.990234 20.5601 1.43023 21.0001 3.21023 21.0001H8.77023C10.5502 21.0001 10.9902 20.5601 10.9902 18.8001V16.8101C10.9902 16.6775 10.9376 16.5503 10.8438 16.4565C10.75 16.3627 10.6228 16.3101 10.4902 16.3101H1.49023Z" fill="white"/>
</svg>
