<svg width="20" height="20" viewBox="0 0 20 20" fill="none" xmlns="http://www.w3.org/2000/svg">
<path d="M14.2076 0H5.82758C2.18758 0 0.0175781 2.17 0.0175781 5.81V14.18C0.0175781 17.83 2.18758 20 5.82758 20H14.1976C17.8376 20 20.0076 17.83 20.0076 14.19V5.81C20.0176 2.17 17.8476 0 14.2076 0ZM7.92758 14.19C7.92758 14.499 7.80484 14.7953 7.58636 15.0138C7.36788 15.2323 7.07156 15.355 6.76258 15.355C6.4536 15.355 6.15728 15.2323 5.9388 15.0138C5.72032 14.7953 5.59758 14.499 5.59758 14.19V10.93C5.59758 10.621 5.72032 10.3247 5.9388 10.1062C6.15728 9.88774 6.4536 9.765 6.76258 9.765C7.07156 9.765 7.36788 9.88774 7.58636 10.1062C7.80484 10.3247 7.92758 10.621 7.92758 10.93V14.19ZM14.4376 14.19C14.4376 14.499 14.3148 14.7953 14.0964 15.0138C13.8779 15.2323 13.5816 15.355 13.2726 15.355C12.9636 15.355 12.6673 15.2323 12.4488 15.0138C12.2303 14.7953 12.1076 14.499 12.1076 14.19V5.81C12.1076 5.50102 12.2303 5.2047 12.4488 4.98622C12.6673 4.76774 12.9636 4.645 13.2726 4.645C13.5816 4.645 13.8779 4.76774 14.0964 4.98622C14.3148 5.2047 14.4376 5.50102 14.4376 5.81V14.19Z" fill="white"/>
</svg>
