<svg width="21" height="22" viewBox="0 0 21 22" fill="none" xmlns="http://www.w3.org/2000/svg">
<path d="M3.99024 13.3268C2.92938 13.3268 1.91196 13.7482 1.16181 14.4984C0.411669 15.2485 -0.0097581 16.2659 -0.0097581 17.3268C-0.0111827 18.0539 0.189631 18.7672 0.570242 19.3868C0.923949 19.9782 1.42497 20.4678 2.02439 20.8077C2.62381 21.1476 3.30114 21.3263 3.99024 21.3263C4.67935 21.3263 5.35667 21.1476 5.95609 20.8077C6.55551 20.4678 7.05654 19.9782 7.41024 19.3868C7.79085 18.7672 7.99167 18.0539 7.99024 17.3268C7.99024 16.2659 7.56881 15.2485 6.81867 14.4984C6.06852 13.7482 5.05111 13.3268 3.99024 13.3268ZM5.48024 18.0568H4.74024V18.8368C4.74024 19.0357 4.66122 19.2265 4.52057 19.3671C4.37992 19.5078 4.18915 19.5868 3.99024 19.5868C3.79133 19.5868 3.60056 19.5078 3.45991 19.3671C3.31926 19.2265 3.24024 19.0357 3.24024 18.8368V18.0568H2.50024C2.30133 18.0568 2.11056 17.9778 1.96991 17.8371C1.82926 17.6965 1.75024 17.5057 1.75024 17.3068C1.75024 17.1079 1.82926 16.9171 1.96991 16.7765C2.11056 16.6358 2.30133 16.5568 2.50024 16.5568H3.24024V15.8468C3.24024 15.6479 3.31926 15.4571 3.45991 15.3165C3.60056 15.1758 3.79133 15.0968 3.99024 15.0968C4.18915 15.0968 4.37992 15.1758 4.52057 15.3165C4.66122 15.4571 4.74024 15.6479 4.74024 15.8468V16.5568H5.48024C5.67915 16.5568 5.86992 16.6358 6.01057 16.7765C6.15122 16.9171 6.23024 17.1079 6.23024 17.3068C6.23024 17.5057 6.15122 17.6965 6.01057 17.8371C5.86992 17.9778 5.67915 18.0568 5.48024 18.0568Z" fill="white"/>
<path d="M20.4902 10.8268H17.9902C17.4598 10.8268 16.9511 11.0375 16.576 11.4126C16.2009 11.7876 15.9902 12.2963 15.9902 12.8268C15.9902 13.3572 16.2009 13.8659 16.576 14.241C16.9511 14.6161 17.4598 14.8268 17.9902 14.8268H20.4902C20.6228 14.8268 20.75 14.7741 20.8438 14.6803C20.9376 14.5866 20.9902 14.4594 20.9902 14.3268V11.3268C20.9902 11.1942 20.9376 11.067 20.8438 10.9732C20.75 10.8795 20.6228 10.8268 20.4902 10.8268Z" fill="white"/>
<path d="M15.5202 3.72775C15.5825 3.79331 15.623 3.87645 15.6363 3.96586C15.6496 4.05527 15.6351 4.14662 15.5947 4.22748C15.5542 4.30833 15.4899 4.37478 15.4104 4.41777C15.3308 4.46076 15.24 4.47821 15.1502 4.46775L6.87022 4.45775C6.76352 4.45798 6.65917 4.42648 6.57042 4.36725C6.48167 4.30803 6.41253 4.22375 6.3718 4.12514C6.33107 4.02652 6.32058 3.91802 6.34166 3.81343C6.36275 3.70884 6.41446 3.61288 6.49022 3.53775L8.24022 1.77475C8.95186 1.06943 9.91326 0.673706 10.9152 0.673706C11.9172 0.673706 12.8786 1.06943 13.5902 1.77475L15.4802 3.68475L15.5202 3.72775Z" fill="white"/>
<path d="M20.8601 16.9867C20.561 18.0015 19.9262 18.8847 19.0595 19.4915C18.1929 20.0983 17.1459 20.3928 16.0901 20.3267H9.59007C9.49885 20.3225 9.41006 20.296 9.33153 20.2494C9.25299 20.2028 9.18711 20.1376 9.1397 20.0596C9.09228 19.9815 9.06478 19.893 9.05961 19.8018C9.05444 19.7107 9.07177 19.6196 9.11007 19.5367C9.41697 18.8394 9.58347 18.0884 9.60007 17.3267C9.59742 15.8689 9.01711 14.4714 7.98623 13.4406C6.95536 12.4097 5.55794 11.8294 4.10007 11.8267C3.34932 11.8269 2.60686 11.9835 1.92007 12.2867C1.83461 12.3261 1.74087 12.344 1.64693 12.339C1.55299 12.3339 1.4617 12.3061 1.38095 12.2578C1.3002 12.2096 1.23242 12.1424 1.18348 12.062C1.13454 11.9817 1.10591 11.8906 1.10007 11.7967V10.3267C1.02001 9.12037 1.41255 7.93019 2.1946 7.00816C2.97664 6.08613 4.0868 5.50462 5.29007 5.38674C5.55474 5.34576 5.82224 5.3257 6.09007 5.32674H16.0901C16.341 5.32279 16.5919 5.33952 16.8401 5.37674C17.7662 5.44815 18.6481 5.80185 19.367 6.39015C20.0858 6.97844 20.6069 7.77302 20.8601 8.66674C20.884 8.74243 20.8899 8.8227 20.8771 8.90108C20.8644 8.97945 20.8334 9.05374 20.7867 9.11795C20.74 9.18217 20.6789 9.23451 20.6083 9.27078C20.5376 9.30704 20.4595 9.32621 20.3801 9.32674H18.0901C17.5684 9.32608 17.0532 9.44225 16.5822 9.66673C16.1113 9.89121 15.6966 10.2183 15.3686 10.624C15.0406 11.0297 14.8076 11.5036 14.6868 12.0111C14.5659 12.5186 14.5602 13.0468 14.6701 13.5567C14.8501 14.3522 15.2981 15.0615 15.9389 15.5658C16.5798 16.0702 17.3746 16.3388 18.1901 16.3267H20.3801C20.4595 16.327 20.5378 16.3461 20.6086 16.3823C20.6793 16.4185 20.7405 16.4708 20.7873 16.5351C20.834 16.5994 20.865 16.6738 20.8776 16.7522C20.8903 16.8307 20.8843 16.911 20.8601 16.9867Z" fill="white"/>
</svg>
