<svg width="20" height="18" viewBox="0 0 20 18" fill="none" xmlns="http://www.w3.org/2000/svg">
<path d="M9.25001 3.70654H7C5.11438 3.70654 4.17157 3.70654 3.58579 4.29233C3 4.87812 3 5.82092 3 7.70654L3.00005 13.9565H16.9999L17 7.70654C17 5.82092 17 4.87812 16.4142 4.29233C15.8284 3.70654 14.8856 3.70654 13 3.70654H10.75V8.6791L11.4306 7.88512C11.7001 7.57062 12.1736 7.5342 12.4881 7.80377C12.8026 8.07333 12.839 8.54681 12.5695 8.8613L10.5695 11.1946C10.427 11.3609 10.219 11.4565 10 11.4565C9.78107 11.4565 9.57306 11.3609 9.43057 11.1946L7.43057 8.8613C7.161 8.54681 7.19743 8.07333 7.51192 7.80377C7.82641 7.5342 8.29989 7.57062 8.56946 7.88512L9.25001 8.6791V3.70654Z" fill="white"/>
<path d="M3.0306 15.4565H16.9694C16.9181 16.2472 16.781 16.7539 16.4142 17.1208C15.8284 17.7065 14.8856 17.7065 13 17.7065H7C5.11438 17.7065 4.17157 17.7065 3.58579 17.1208C3.21898 16.7539 3.08186 16.2472 3.0306 15.4565Z" fill="white"/>
<path d="M3.88889 0.706543H16.1111C18.2589 0.706543 20 2.50652 20 4.7269C20 6.01626 19.4129 7.16385 18.5 7.89955L18.5 7.61707C18.5001 6.75144 18.5002 5.95776 18.4134 5.31214C18.3178 4.60118 18.0929 3.84973 17.4748 3.23168C16.8568 2.61364 16.1054 2.38874 15.3944 2.29316C14.7488 2.20635 13.9551 2.20645 13.0895 2.20655H6.91048C6.04485 2.20645 5.25118 2.20635 4.60556 2.29316C3.8946 2.38874 3.14315 2.61364 2.5251 3.23168C1.90706 3.84973 1.68216 4.60118 1.58657 5.31214C1.49977 5.95776 1.49987 6.75143 1.49997 7.61706L1.49998 7.89951C0.587088 7.16381 0 6.01623 0 4.7269C0 2.50652 1.74112 0.706543 3.88889 0.706543Z" fill="white"/>
</svg>
