<svg width="20" height="18" viewBox="0 0 20 18" fill="none" xmlns="http://www.w3.org/2000/svg">
<path fill-rule="evenodd" clip-rule="evenodd" d="M15.32 17.5188C15.5883 17.7126 15.9341 17.7611 16.2425 17.6421C16.5508 17.5222 16.7775 17.2536 16.8458 16.9281C17.5699 13.4567 19.3266 4.67022 19.9857 1.51247C20.0357 1.27447 19.9524 1.02712 19.7691 0.868169C19.5857 0.709219 19.3316 0.663319 19.1049 0.749169C15.6108 2.06837 4.85022 6.18662 0.451988 7.84668C0.172828 7.95208 -0.00883492 8.22578 0.000331537 8.52583C0.0103313 8.82673 0.20866 9.08768 0.494487 9.17523C2.46694 9.77703 5.05605 10.6143 5.05605 10.6143C5.05605 10.6143 6.26602 14.3415 6.89684 16.237C6.97601 16.475 7.1585 16.662 7.39933 16.7266C7.63932 16.7904 7.89599 16.7232 8.07515 16.5507C9.08846 15.5749 10.6551 14.0661 10.6551 14.0661C10.6551 14.0661 13.6317 16.2923 15.32 17.5188ZM6.14519 10.1434L7.54433 14.8507L7.85515 11.8697C7.85515 11.8697 13.2609 6.89638 16.3425 4.06162C16.4325 3.97832 16.445 3.83892 16.37 3.74117C16.2958 3.64342 16.1591 3.62047 16.0566 3.68677C12.485 6.01323 6.14519 10.1434 6.14519 10.1434Z" fill="white"/>
</svg>
