<svg width="20" height="20" viewBox="0 0 20 20" fill="none" xmlns="http://www.w3.org/2000/svg">
<path d="M14.9988 0.439244H4.99881C4.33171 0.398984 3.66365 0.50073 3.03878 0.737763C2.4139 0.974795 1.84644 1.34172 1.37386 1.81429C0.901289 2.28687 0.534366 2.85433 0.297333 3.47921C0.0603008 4.10408 -0.0414461 4.77214 -0.00118573 5.43924V11.4392C-0.0414461 12.1064 0.0603008 12.7744 0.297333 13.3993C0.534366 14.0242 0.901289 14.5916 1.37386 15.0642C1.84644 15.5368 2.4139 15.9037 3.03878 16.1407C3.66365 16.3778 4.33171 16.4795 4.99881 16.4392V18.5692C4.99771 18.7501 5.046 18.9279 5.13847 19.0834C5.23094 19.2389 5.36409 19.3662 5.52356 19.4516C5.68304 19.537 5.8628 19.5772 6.04347 19.568C6.22414 19.5588 6.39886 19.5004 6.54881 19.3992L10.9988 16.4392H14.9988C15.6659 16.4795 16.334 16.3778 16.9589 16.1407C17.5837 15.9037 18.1512 15.5368 18.6238 15.0642C19.0963 14.5916 19.4633 14.0242 19.7003 13.3993C19.9373 12.7744 20.0391 12.1064 19.9988 11.4392V5.43924C20.0391 4.77214 19.9373 4.10408 19.7003 3.47921C19.4633 2.85433 19.0963 2.28687 18.6238 1.81429C18.1512 1.34172 17.5837 0.974795 16.9589 0.737763C16.334 0.50073 15.6659 0.398984 14.9988 0.439244ZM9.99881 12.6092C9.85048 12.6092 9.70547 12.5653 9.58214 12.4828C9.4588 12.4004 9.36267 12.2833 9.30591 12.1463C9.24914 12.0092 9.23429 11.8584 9.26323 11.7129C9.29216 11.5674 9.3636 11.4338 9.46848 11.3289C9.57337 11.224 9.70701 11.1526 9.8525 11.1237C9.99798 11.0947 10.1488 11.1096 10.2858 11.1663C10.4229 11.2231 10.54 11.3192 10.6224 11.4426C10.7048 11.5659 10.7488 11.7109 10.7488 11.8592C10.7489 11.9578 10.7296 12.0554 10.692 12.1464C10.6543 12.2375 10.5991 12.3202 10.5294 12.3899C10.4598 12.4595 10.377 12.5148 10.286 12.5524C10.1949 12.5901 10.0973 12.6094 9.99881 12.6092ZM11.2588 8.45924C10.8688 8.71924 10.7488 8.88924 10.7488 9.16924V9.37924C10.7488 9.57816 10.6698 9.76892 10.5291 9.90957C10.3885 10.0502 10.1977 10.1292 9.99881 10.1292C9.7999 10.1292 9.60914 10.0502 9.46848 9.90957C9.32783 9.76892 9.24881 9.57816 9.24881 9.37924V9.16924C9.26072 8.77127 9.37454 8.383 9.57939 8.04159C9.78424 7.70017 10.0733 7.41703 10.4188 7.21924C10.7888 6.96924 10.9088 6.79924 10.9088 6.53924C10.9088 6.2979 10.8129 6.06643 10.6423 5.89578C10.4716 5.72512 10.2402 5.62924 9.99881 5.62924C9.75747 5.62924 9.52601 5.72512 9.35535 5.89578C9.18469 6.06643 9.08881 6.2979 9.08881 6.53924C9.08881 6.73816 9.0098 6.92892 8.86914 7.06957C8.72849 7.21023 8.53773 7.28924 8.33881 7.28924C8.1399 7.28924 7.94914 7.21023 7.80848 7.06957C7.66783 6.92892 7.58881 6.73816 7.58881 6.53924C7.58881 5.90007 7.84272 5.28708 8.29469 4.83512C8.74665 4.38315 9.35964 4.12924 9.99881 4.12924C10.638 4.12924 11.251 4.38315 11.7029 4.83512C12.1549 5.28708 12.4088 5.90007 12.4088 6.53924C12.397 6.93084 12.2852 7.3129 12.0838 7.649C11.8825 7.9851 11.5985 8.26405 11.2588 8.45924Z" fill="white"/>
</svg>
