<svg width="38" height="38" viewBox="0 0 38 38" fill="none" xmlns="http://www.w3.org/2000/svg">
<path d="M26.606 0.25H10.8931C4.06907 0.25 0 4.319 0 11.144V26.838C0 33.682 4.06904 37.75 10.894 37.75H26.5879C33.4129 37.75 37.4819 33.681 37.4819 26.856V11.144C37.4999 4.319 33.431 0.25 26.606 0.25Z" fill="url(#paint0_linear_1_589)"/>
<path d="M28 22.25C28 24.1065 27.2625 25.887 25.9497 27.1997C24.637 28.5125 22.8565 29.25 21 29.25L22.05 27.5" stroke="#02081E" stroke-width="1.5" stroke-linecap="round" stroke-linejoin="round"/>
<path d="M8 16.25C8 14.3935 8.7375 12.613 10.0503 11.3003C11.363 9.9875 13.1435 9.25 15 9.25L13.95 11" stroke="#02081E" stroke-width="1.5" stroke-linecap="round" stroke-linejoin="round"/>
<path d="M28 11.45V11.56C28 11.6926 27.9473 11.8198 27.8536 11.9136C27.7598 12.0073 27.6326 12.06 27.5 12.06H18.5C18.3674 12.06 18.2402 12.0073 18.1464 11.9136C18.0527 11.8198 18 11.6926 18 11.56V11.45C18 9.69 18.44 9.25 20.22 9.25H25.78C27.56 9.25 28 9.69 28 11.45Z" fill="#02081E"/>
<path d="M18.5 13.06C18.3674 13.06 18.2402 13.1127 18.1464 13.2064C18.0527 13.3002 18 13.4274 18 13.56V15.55C18 17.31 18.44 17.75 20.22 17.75H25.78C27.56 17.75 28 17.31 28 15.55V13.56C28 13.4274 27.9473 13.3002 27.8536 13.2064C27.7598 13.1127 27.6326 13.06 27.5 13.06H18.5Z" fill="#02081E"/>
<path d="M18 22.95V23.06C18 23.1926 17.9473 23.3198 17.8536 23.4136C17.7598 23.5073 17.6326 23.56 17.5 23.56H8.5C8.36739 23.56 8.24021 23.5073 8.14645 23.4136C8.05268 23.3198 8 23.1926 8 23.06V22.95C8 21.19 8.44 20.75 10.22 20.75H15.78C17.56 20.75 18 21.19 18 22.95Z" fill="#02081E"/>
<path d="M8.5 24.56C8.36739 24.56 8.24021 24.6127 8.14645 24.7064C8.05268 24.8002 8 24.9274 8 25.06V27.05C8 28.81 8.44 29.25 10.22 29.25H15.78C17.56 29.25 18 28.81 18 27.05V25.06C18 24.9274 17.9473 24.8002 17.8536 24.7064C17.7598 24.6127 17.6326 24.56 17.5 24.56H8.5Z" fill="#02081E"/>
<defs>
<linearGradient id="paint0_linear_1_589" x1="0" y1="0.25" x2="35.7758" y2="37.7328" gradientUnits="userSpaceOnUse">
<stop stop-color="#16B8EE"/>
<stop offset="1" stop-color="#A336F7"/>
</linearGradient>
</defs>
</svg>
