<svg width="38" height="38" viewBox="0 0 38 38" fill="none" xmlns="http://www.w3.org/2000/svg">
<path d="M26.606 0.25H10.8931C4.06907 0.25 0 4.319 0 11.144V26.838C0 33.682 4.06904 37.75 10.894 37.75H26.5879C33.4129 37.75 37.4819 33.681 37.4819 26.856V11.144C37.4999 4.319 33.431 0.25 26.606 0.25Z" fill="url(#paint0_linear_1_601)"/>
<path d="M23.19 9.25H14.81C11.17 9.25 9 11.42 9 15.06V23.43C9 27.08 11.17 29.25 14.81 29.25H23.18C26.82 29.25 28.99 27.08 28.99 23.44V15.06C29 11.42 26.83 9.25 23.19 9.25ZM16.91 23.44C16.91 23.749 16.7873 24.0453 16.5688 24.2638C16.3503 24.4823 16.054 24.605 15.745 24.605C15.436 24.605 15.1397 24.4823 14.9212 24.2638C14.7027 24.0453 14.58 23.749 14.58 23.44V20.18C14.58 19.871 14.7027 19.5747 14.9212 19.3562C15.1397 19.1377 15.436 19.015 15.745 19.015C16.054 19.015 16.3503 19.1377 16.5688 19.3562C16.7873 19.5747 16.91 19.871 16.91 20.18V23.44ZM23.42 23.44C23.42 23.749 23.2973 24.0453 23.0788 24.2638C22.8603 24.4823 22.564 24.605 22.255 24.605C21.946 24.605 21.6497 24.4823 21.4312 24.2638C21.2127 24.0453 21.09 23.749 21.09 23.44V15.06C21.09 14.751 21.2127 14.4547 21.4312 14.2362C21.6497 14.0177 21.946 13.895 22.255 13.895C22.564 13.895 22.8603 14.0177 23.0788 14.2362C23.2973 14.4547 23.42 14.751 23.42 15.06V23.44Z" fill="#02081E"/>
<defs>
<linearGradient id="paint0_linear_1_601" x1="0" y1="0.25" x2="35.7758" y2="37.7328" gradientUnits="userSpaceOnUse">
<stop stop-color="#16B8EE"/>
<stop offset="1" stop-color="#A336F7"/>
</linearGradient>
</defs>
</svg>
