<svg width="13" height="13" viewBox="0 0 13 13" fill="none" xmlns="http://www.w3.org/2000/svg">
<path d="M6.25 12.5435C5.01387 12.5435 3.8055 12.1769 2.77769 11.4902C1.74988 10.8034 0.948803 9.8273 0.475756 8.68526C0.00270802 7.54322 -0.121063 6.28656 0.120095 5.07418C0.361252 3.86179 0.956507 2.74815 1.83059 1.87407C2.70466 0.999995 3.81831 0.40474 5.03069 0.163582C6.24307 -0.0775753 7.49974 0.0461956 8.64177 0.519243C9.78381 0.992291 10.7599 1.79337 11.4467 2.82118C12.1334 3.84898 12.5 5.05736 12.5 6.29349C12.4974 7.95028 11.838 9.53846 10.6665 10.71C9.49497 11.8815 7.90679 12.5408 6.25 12.5435ZM5.781 8.79349C5.781 8.91788 5.83042 9.03717 5.91837 9.12512C6.00632 9.21308 6.12562 9.26249 6.25 9.26249C6.37439 9.26249 6.49368 9.21308 6.58164 9.12512C6.66959 9.03717 6.719 8.91788 6.719 8.79349V5.66849C6.71343 5.54798 6.66164 5.43425 6.57439 5.35094C6.48714 5.26763 6.37114 5.22114 6.2505 5.22114C6.12986 5.22114 6.01387 5.26763 5.92661 5.35094C5.83936 5.43425 5.78757 5.54798 5.782 5.66849L5.781 8.79349ZM6.825 3.55649C6.79485 3.48011 6.75038 3.41019 6.694 3.35049C6.63327 3.29545 6.56361 3.25115 6.488 3.21949C6.41317 3.18651 6.33228 3.16948 6.2505 3.16948C6.16872 3.16948 6.08784 3.18651 6.013 3.21949C5.9374 3.25115 5.86774 3.29545 5.807 3.35049C5.75062 3.41019 5.70616 3.48011 5.676 3.55649C5.64303 3.63133 5.626 3.71221 5.626 3.79399C5.626 3.87577 5.64303 3.95665 5.676 4.03149C5.70766 4.1071 5.75196 4.17676 5.807 4.23749C5.86774 4.29253 5.9374 4.33683 6.013 4.36849C6.16517 4.431 6.33584 4.431 6.488 4.36849C6.56361 4.33683 6.63327 4.29253 6.694 4.23749C6.74905 4.17676 6.79335 4.1071 6.825 4.03149C6.85798 3.95665 6.87501 3.87577 6.87501 3.79399C6.87501 3.71221 6.85798 3.63133 6.825 3.55649Z" fill="#404554"/>
</svg>
