<svg width="132" height="120" viewBox="0 0 132 120" fill="none" xmlns="http://www.w3.org/2000/svg">
<path d="M0.377 60.2555V59.6935C0.4 59.6725 0.433 59.6565 0.445 59.6305C0.547065 59.4365 0.700032 59.274 0.887484 59.1603C1.07494 59.0467 1.2898 58.9863 1.509 58.9855C2.396 58.8725 3.279 58.7325 4.164 58.5985C5.064 58.4615 5.971 58.3045 6.877 58.1815C7.63923 58.0802 8.38129 57.862 9.077 57.5345C10.8265 56.7062 12.509 55.7429 14.109 54.6535C16.8001 52.7825 19.3765 50.7515 21.824 48.5715C24.205 46.5065 26.602 44.4615 28.979 42.3915C30.014 41.4915 31.038 40.5745 32.028 39.6235C33.056 38.6365 34.085 37.6515 35.177 36.7365C37.0657 35.1296 39.1535 33.7727 41.389 32.6995C42.677 32.0915 44.007 31.5735 45.317 31.0145C46.254 30.6145 47.207 30.2465 48.123 29.8035C49.9176 28.9463 51.5939 27.8606 53.11 26.5735C54.0386 25.7873 54.9179 24.9447 55.743 24.0505C57.5108 22.1247 59.0037 19.9635 60.179 17.6285C60.691 16.6075 61.17 15.5655 61.596 14.5055C62.372 12.5765 63.096 10.6255 63.843 8.6855C64.4001 7.17171 65.1292 5.72691 66.016 4.3795C66.7128 3.34045 67.6034 2.44546 68.639 1.7435C70.034 0.819985 71.6339 0.252115 73.299 0.0894985C74.5529 -0.0361812 75.8165 -0.0294775 77.069 0.109498C78.217 0.223498 79.362 0.372498 80.507 0.523498C82.5713 0.782915 84.6176 1.16999 86.634 1.6825C88.5752 2.20002 90.4794 2.84714 92.334 3.6195C93.6183 4.15916 94.8746 4.76326 96.098 5.4295C96.8784 5.84525 97.6274 6.31751 98.339 6.8425C99.6849 7.8575 100.946 8.98055 102.109 10.2005C102.53 10.6318 102.944 11.0705 103.35 11.5165C104.225 12.4765 105.104 13.4335 105.961 14.4105C106.561 15.0895 107.127 15.7935 107.696 16.4955C108.318 17.2622 108.933 18.0348 109.54 18.8135C110.047 19.4595 110.54 20.1135 111.04 20.7675C111.44 21.2975 111.84 21.8295 112.235 22.3675C112.976 23.3842 113.712 24.4042 114.443 25.4275C114.5 25.5202 114.585 25.5928 114.686 25.6352C114.786 25.6777 114.897 25.6879 115.004 25.6645C115.333 25.6175 115.665 25.5875 115.996 25.5645C116.696 25.5055 117.405 25.4565 118.109 25.3975C118.668 25.3505 119.227 25.2905 119.786 25.2425C120.407 25.1885 121.03 25.1425 121.651 25.0885C122.593 25.0025 123.534 24.9025 124.477 24.8215C125.171 24.7615 125.867 24.7305 126.561 24.6705C128.011 24.5455 129.461 24.4075 130.909 24.2775C131.069 24.248 131.235 24.2782 131.375 24.3624C131.515 24.4465 131.619 24.5789 131.668 24.7345C131.688 24.7825 131.71 24.8295 131.731 24.8765V25.0635C131.696 25.2054 131.625 25.3357 131.524 25.4411C131.423 25.5464 131.295 25.6232 131.155 25.6635C130.718 25.8315 130.287 26.0135 129.855 26.1905L126.304 27.6425C125.237 28.0792 124.169 28.5155 123.098 28.9515C122.163 29.3315 121.226 29.7035 120.292 30.0835C119.242 30.5108 118.193 30.9412 117.146 31.3745C116.919 31.4685 116.695 31.5685 116.407 31.6925C116.556 31.7795 116.638 31.8365 116.728 31.8795C117.801 32.3828 118.876 32.8848 119.951 33.3855C120.733 33.7508 121.515 34.1155 122.298 34.4795C123.202 34.9028 124.106 35.3272 125.009 35.7525C125.509 35.9875 126.009 36.2185 126.502 36.4635C126.637 36.5338 126.744 36.6478 126.805 36.7868C126.866 36.9258 126.879 37.0816 126.84 37.2285C126.816 37.3742 126.74 37.5065 126.627 37.6011C126.513 37.6956 126.37 37.7462 126.222 37.7435C126.066 37.7505 125.91 37.7455 125.755 37.7285C124.784 37.6192 123.813 37.5068 122.842 37.3915C121.489 37.2335 120.136 37.0715 118.783 36.9165C117.43 36.7615 116.075 36.6165 114.722 36.4615C114.442 36.4305 114.395 36.4615 114.338 36.7325C114.205 37.3945 114.073 38.0575 113.944 38.7215C113.673 40.1405 113.408 41.5615 113.134 42.9805C113.044 43.4465 113.034 43.4355 112.578 43.4945C111.144 43.6706 109.788 44.2458 108.665 45.1545C107.748 45.881 107.003 46.8009 106.483 47.8485C106.369 48.0828 106.206 48.29 106.005 48.4564C105.804 48.6228 105.57 48.7445 105.319 48.8135C104.898 48.9442 104.443 48.9215 104.037 48.7495C103.602 48.5775 103.171 48.3935 102.742 48.2065C101.092 47.4885 99.4427 46.7688 97.794 46.0475C97.545 45.9385 97.534 45.9165 97.581 45.6415C97.655 45.2115 97.737 44.7825 97.813 44.3525C98.087 42.8065 98.36 41.2605 98.632 39.7145C98.6576 39.6528 98.6688 39.5859 98.6647 39.5192C98.6605 39.4525 98.6411 39.3876 98.608 39.3295C98.417 39.4495 98.236 39.5665 98.053 39.6785C97.138 40.2345 96.22 40.7875 95.306 41.3455C94.392 41.9035 93.506 42.4595 92.594 43.0095C92.5053 43.0529 92.4335 43.1247 92.3901 43.2134C92.3466 43.3021 92.3339 43.4028 92.354 43.4995C92.426 44.0245 92.488 44.5515 92.554 45.0775C92.712 46.3045 92.874 47.5315 93.028 48.7585C93.2647 50.6565 93.498 52.5565 93.728 54.4585C93.81 55.1295 93.891 55.8005 93.973 56.4705C94.1063 57.5638 94.2423 58.6572 94.381 59.7505C94.3979 59.8274 94.3858 59.9077 94.3471 59.9762C94.3083 60.0447 94.2456 60.0965 94.171 60.1215C94.071 60.1625 93.981 60.2075 93.885 60.2475C93.285 60.4985 92.673 60.7475 92.07 61.0015C90.661 61.5955 89.255 62.1955 87.845 62.7875C85.8697 63.6182 83.8933 64.4465 81.916 65.2725C80.1893 65.9972 78.4637 66.7235 76.739 67.4515C76.647 67.4905 76.548 67.5135 76.413 67.5515C76.388 67.433 76.3703 67.3131 76.36 67.1925C76.336 65.9035 76.318 64.6145 76.296 63.3255C76.2813 62.4528 76.2643 61.5798 76.245 60.7065C76.24 60.4555 76.264 60.4065 76.524 60.3385C77.008 60.2155 77.494 60.1035 77.981 59.9915C79.8157 59.5708 81.651 59.1512 83.487 58.7325C83.831 58.6535 83.861 58.6045 83.795 58.2625C83.657 57.5475 83.522 56.8325 83.383 56.1185C83.292 55.6485 83.199 55.1795 83.101 54.7115C83.043 54.4365 83.009 54.4115 82.746 54.4515C81.862 54.5835 80.977 54.7135 80.094 54.8575C79.139 55.0125 78.189 55.1905 77.234 55.3435C75.314 55.6525 73.392 55.9485 71.472 56.2565C70.425 56.4245 69.381 56.6115 68.333 56.7775C66.556 57.0585 64.777 57.3225 63.001 57.6075C61.801 57.7995 60.601 58.0225 59.401 58.2175C57.79 58.4785 56.176 58.7225 54.564 58.9785C53.3827 59.1652 52.202 59.3555 51.022 59.5495C49.595 59.7835 48.172 60.0395 46.742 60.2495C46.27 60.3014 45.8338 60.5257 45.517 60.8795C44.135 62.3795 42.712 63.8365 41.305 65.3105C39.7197 66.9698 38.134 68.6328 36.548 70.2995C36.4276 70.4288 36.2724 70.5205 36.101 70.5635C35.085 70.8315 34.074 71.1145 33.058 71.3805C30.8947 71.9465 28.7303 72.5092 26.565 73.0685C26.201 73.1635 26.19 73.1845 26.175 73.5545C26.137 74.4878 26.0977 75.4212 26.057 76.3545C25.973 78.3385 25.89 80.3225 25.808 82.3065C25.7962 82.4716 25.8186 82.6375 25.874 82.7935C26.241 83.6995 26.609 84.6055 27.007 85.4935C27.414 86.4045 27.856 87.2995 28.283 88.2025H19.356C19.366 88.1025 19.371 87.9955 19.387 87.8935C19.5517 86.8462 19.7183 85.7992 19.887 84.7525C20.114 83.3365 20.34 81.9195 20.576 80.5055C20.6352 80.1681 20.609 79.8212 20.5 79.4965C19.95 77.8165 19.414 76.1325 18.875 74.4495C18.587 73.5495 18.311 72.6435 18.012 71.7495C17.9646 71.6406 17.95 71.5204 17.9699 71.4033C17.9898 71.2863 18.0433 71.1776 18.124 71.0905C18.279 70.9095 18.409 70.7065 18.547 70.5115C19.598 69.0115 20.647 67.5115 21.7 66.0175C22.917 64.2935 24.145 62.5765 25.362 60.8525C26.177 59.6975 26.98 58.5335 27.789 57.3735C27.989 57.0835 27.995 57.0815 27.744 56.8285C26.0873 55.1618 24.4297 53.4952 22.771 51.8285C22.463 51.5195 22.46 51.5225 22.107 51.7715L13.693 57.7055C11.6437 59.1548 9.59533 60.6028 7.548 62.0495C7.45429 62.1213 7.34523 62.1706 7.22935 62.1933C7.11347 62.216 6.99391 62.2116 6.88 62.1805C5.113 61.7905 3.347 61.3985 1.575 61.0335C1.33196 61.0124 1.09774 60.9323 0.892646 60.8002C0.687548 60.6681 0.517759 60.488 0.398 60.2755C0.398 60.2665 0.383 60.2615 0.375 60.2545" fill="#F8C541"/>
<path d="M16.083 106.901H21.154C22.0432 106.881 22.9082 107.193 23.58 107.776C23.8995 108.028 24.1577 108.35 24.3352 108.717C24.5127 109.083 24.6049 109.486 24.6049 109.893C24.6049 110.3 24.5127 110.703 24.3352 111.069C24.1577 111.436 23.8995 111.758 23.58 112.01C22.9082 112.593 22.0432 112.905 21.154 112.884H16.083V106.901ZM15.561 105.847V105.855H15.011V119.312H16.083V113.936H19.319L23.001 117.758C23.4317 118.283 23.955 118.723 24.545 119.058C25.2682 119.239 26.0148 119.309 26.759 119.266V118.211C26.1624 118.245 25.5639 118.198 24.98 118.07C24.5287 117.798 24.127 117.451 23.792 117.044L20.792 113.938H21.159C22.3377 113.965 23.4822 113.542 24.359 112.753C24.774 112.401 25.1074 111.963 25.336 111.469C25.5646 110.975 25.6831 110.437 25.6831 109.893C25.6831 109.349 25.5646 108.811 25.336 108.317C25.1074 107.823 24.774 107.385 24.359 107.032C23.4822 106.244 22.3377 105.821 21.159 105.847H15.561ZM112.514 105.847C111.43 105.807 110.371 106.176 109.547 106.881C109.169 107.209 108.869 107.616 108.667 108.073C108.465 108.53 108.366 109.027 108.378 109.526C108.36 109.902 108.421 110.278 108.556 110.629C108.69 110.981 108.897 111.301 109.161 111.568C110.106 112.326 111.308 112.687 112.514 112.576H115.44C116.239 112.557 117.013 112.854 117.594 113.404C117.879 113.663 118.106 113.98 118.259 114.334C118.412 114.688 118.488 115.07 118.482 115.456C118.49 115.832 118.415 116.205 118.263 116.55C118.111 116.894 117.886 117.201 117.603 117.449C117.016 117.993 116.239 118.284 115.439 118.259H108.919V119.313H115.439C116.526 119.343 117.581 118.945 118.376 118.203C118.76 117.858 119.064 117.433 119.269 116.959C119.474 116.485 119.574 115.972 119.563 115.456C119.573 114.93 119.471 114.409 119.265 113.926C119.058 113.443 118.75 113.01 118.363 112.655C117.576 111.907 116.523 111.501 115.437 111.527H112.511C111.605 111.62 110.696 111.375 109.96 110.839C109.787 110.668 109.653 110.462 109.567 110.235C109.481 110.008 109.444 109.765 109.46 109.522C109.449 109.162 109.52 108.804 109.667 108.475C109.814 108.146 110.034 107.855 110.309 107.622C110.928 107.117 111.711 106.856 112.509 106.888H119.02V105.844L112.514 105.847ZM38.94 105.836L34.486 111.636L30.042 105.836H28.689L33.945 112.678V119.312H35.027V112.678L40.283 105.836H38.94ZM54.831 105.836V106.891H59.585V119.312H60.669V106.891H65.419V105.836H54.831ZM102.245 105.836L96.525 118.25L93.878 112.508L96.95 105.836H95.762L93.289 111.22L90.806 105.836H89.618L92.69 112.508L90.053 118.25L84.334 105.836H83.144L89.355 119.312H90.737L93.288 113.789L95.828 119.312H97.219L103.431 105.836H102.245ZM105.365 119.312H106.447V105.836H105.369L105.365 119.312ZM43.297 106.881H48.369C49.263 106.862 50.1319 107.178 50.805 107.766C51.1227 108.018 51.3791 108.339 51.5549 108.704C51.7307 109.07 51.8214 109.47 51.82 109.875C51.8201 110.283 51.729 110.686 51.5534 111.054C51.3778 111.422 51.1221 111.746 50.805 112.003C50.1264 112.579 49.2596 112.887 48.369 112.867H43.297V106.881ZM42.756 105.828V105.836H42.215V119.312H43.297V113.919H48.369C49.548 113.947 50.6928 113.523 51.569 112.733C51.987 112.383 52.3232 111.946 52.5539 111.452C52.7845 110.957 52.904 110.419 52.904 109.873C52.904 109.328 52.7845 108.789 52.5539 108.295C52.3232 107.801 51.987 107.364 51.569 107.013C50.6931 106.224 49.5481 105.799 48.369 105.828H42.756ZM122.938 105.818V111.013C122.672 111.119 122.433 111.283 122.238 111.492C121.937 111.826 121.689 112.203 121.503 112.612L122.497 113.043C122.614 112.79 122.764 112.553 122.943 112.339V119.311H131.669V118.258H124.029V111.943C124.242 111.969 124.452 112.015 124.656 112.083C124.997 112.228 125.339 112.376 125.682 112.526C126.052 112.716 126.432 112.883 126.822 113.026C127.261 113.189 127.725 113.271 128.193 113.271C128.557 113.274 128.918 113.206 129.256 113.07C129.552 112.949 129.829 112.784 130.077 112.581C130.31 112.386 130.524 112.168 130.715 111.931C130.895 111.698 131.062 111.474 131.215 111.253L130.308 110.67C130.166 110.878 130.014 111.082 129.853 111.282C129.707 111.463 129.545 111.63 129.37 111.782C129.207 111.914 129.025 112.019 128.829 112.094C128.568 112.192 128.291 112.238 128.012 112.229C127.733 112.219 127.459 112.154 127.206 112.037C126.849 111.908 126.501 111.758 126.162 111.586C125.795 111.415 125.426 111.261 125.05 111.115C124.722 110.988 124.378 110.91 124.028 110.88V106.871H131.669V105.818L122.938 105.818ZM2.29804 107.784C1.65626 108.403 1.1458 109.145 0.797144 109.966C0.448492 110.786 0.268799 111.669 0.268799 112.56C0.268799 113.452 0.448492 114.335 0.797144 115.155C1.1458 115.976 1.65626 116.718 2.29804 117.336C2.94246 117.977 3.70871 118.482 4.55151 118.821C5.39432 119.161 6.29659 119.328 7.20504 119.312C8.39494 119.319 9.5662 119.017 10.605 118.436C11.6091 117.89 12.4593 117.099 13.077 116.136H11.756C11.2139 116.79 10.5345 117.317 9.76604 117.678C8.96828 118.067 8.09219 118.267 7.20504 118.263C6.43791 118.277 5.67605 118.134 4.96528 117.846C4.25451 117.557 3.6095 117.127 3.06904 116.582C2.52595 116.062 2.09381 115.437 1.79859 114.745C1.50338 114.052 1.35119 113.308 1.35119 112.555C1.35119 111.803 1.50338 111.059 1.79859 110.366C2.09381 109.674 2.52595 109.049 3.06904 108.529C3.61115 107.987 4.25666 107.561 4.96707 107.275C5.67748 106.989 6.43826 106.848 7.20404 106.862C8.09132 106.859 8.96807 107.055 9.76904 107.436C10.5388 107.8 11.2184 108.33 11.759 108.987H13.069C12.4538 108.027 11.6073 107.236 10.607 106.688C9.56797 106.108 8.39693 105.806 7.20704 105.81C6.29859 105.795 5.39632 105.962 4.55351 106.302C3.71071 106.641 2.94446 107.146 2.30004 107.786M69.98 116.378C68.9993 115.342 68.4527 113.969 68.4527 112.543C68.4527 111.117 68.9993 109.744 69.98 108.708C70.9577 107.649 72.3007 107 73.738 106.893V118.193C72.3001 118.085 70.9566 117.435 69.98 116.375M74.82 106.889C76.2572 106.998 77.6 107.647 78.578 108.706C79.5579 109.742 80.1039 111.114 80.1039 112.54C80.1039 113.966 79.5579 115.338 78.578 116.375C77.6006 117.434 76.2575 118.083 74.82 118.19V106.889ZM73.738 105.082V105.834C72.0181 105.943 70.4043 106.704 69.226 107.961C68.0369 109.189 67.372 110.831 67.372 112.539C67.372 114.248 68.0369 115.89 69.226 117.117C70.4031 118.377 72.0175 119.138 73.738 119.245V119.998H74.819V119.245C76.5416 119.136 78.1582 118.375 79.34 117.117C80.5236 115.889 81.185 114.25 81.185 112.544C81.185 110.839 80.5236 109.2 79.34 107.971C78.16 106.71 76.543 105.946 74.819 105.836V105.084L73.738 105.082Z" fill="#F8C541"/>
</svg>
