<svg width="60" height="61" viewBox="0 0 60 61" fill="none" xmlns="http://www.w3.org/2000/svg">
<path d="M42.5551 60.498H17.4451C14.9512 60.532 12.4705 60.13 10.115 59.31C8.05815 58.5817 6.18732 57.4085 4.63603 55.874C3.10255 54.3188 1.93074 52.4447 1.20402 50.385C0.383874 48.0237 -0.0184439 45.5375 0.0150547 43.038V17.928C0.0150547 7.01401 6.53101 0.498007 17.444 0.498007H42.585C45.0807 0.464117 47.5631 0.86685 49.9201 1.68801C51.9769 2.41627 53.8475 3.58989 55.3981 5.12501C56.9258 6.67584 58.0925 8.54458 58.8151 10.598C59.6291 12.9528 60.0247 15.4318 59.9841 17.923V43.063C59.9851 53.982 53.4691 60.498 42.5551 60.498ZM22.0151 45.179C22.3696 45.2112 22.7093 45.3372 22.9991 45.544C23.2889 45.7509 23.5184 46.0311 23.6641 46.356L23.7741 46.546C23.9233 46.7976 24.135 47.0063 24.3887 47.1517C24.6425 47.2972 24.9296 47.3744 25.2221 47.376C25.515 47.3761 25.8024 47.297 26.054 47.147L27.7851 46.157C28.0015 46.0336 28.1912 45.8684 28.3432 45.671C28.4951 45.4735 28.6063 45.2478 28.6701 45.007C28.7361 44.7666 28.7537 44.5155 28.7217 44.2683C28.6898 44.0211 28.609 43.7827 28.484 43.567C28.2746 43.2794 28.1457 42.9412 28.1105 42.5872C28.0754 42.2331 28.1353 41.8762 28.2841 41.553C28.4889 41.2625 28.7674 41.0318 29.091 40.8847C29.4146 40.7376 29.7715 40.6793 30.125 40.716C30.3746 40.716 30.6217 40.6669 30.8522 40.5714C31.0827 40.4759 31.2921 40.3359 31.4685 40.1595C31.645 39.9831 31.7849 39.7736 31.8804 39.5431C31.9759 39.3126 32.0251 39.0655 32.0251 38.816V37.057C32.0198 36.5528 31.8165 36.0709 31.4589 35.7154C31.1013 35.3599 30.6183 35.1593 30.1141 35.157C29.7606 35.1938 29.4037 35.1357 29.0801 34.9888C28.7565 34.8418 28.478 34.6114 28.2731 34.321C28.1228 33.9985 28.0613 33.6418 28.0949 33.2876C28.1285 32.9334 28.2558 32.5945 28.464 32.306C28.7139 31.8695 28.7805 31.3518 28.6493 30.8663C28.5181 30.3808 28.1998 29.9672 27.7641 29.716L26.0341 28.726C25.7827 28.5764 25.4956 28.4972 25.203 28.497C24.9108 28.4991 24.624 28.5764 24.3704 28.7216C24.1168 28.8669 23.9048 29.075 23.755 29.326L23.6451 29.516C23.5016 29.841 23.2737 30.1216 22.9851 30.3287C22.6966 30.5359 22.3578 30.662 22.0041 30.694C21.6494 30.6617 21.3096 30.5356 21.0198 30.3286C20.73 30.1215 20.5006 29.8411 20.355 29.516L20.245 29.326C20.1007 29.0743 19.8925 28.8651 19.6414 28.7197C19.3903 28.5743 19.1053 28.4978 18.8151 28.498C18.5229 28.4983 18.236 28.5774 17.985 28.727L16.2541 29.717C15.8169 29.9694 15.4976 30.3848 15.3664 30.8723C15.2351 31.3597 15.3026 31.8793 15.554 32.317C15.7624 32.6024 15.8909 32.9382 15.9261 33.2898C15.9612 33.6414 15.9019 33.996 15.7541 34.317C15.5493 34.6079 15.2706 34.8389 14.9468 34.9862C14.623 35.1335 14.2658 35.1918 13.912 35.155C13.4081 35.155 12.9248 35.3552 12.5685 35.7115C12.2122 36.0678 12.012 36.5511 12.012 37.055V38.814C12.012 39.3179 12.2122 39.8012 12.5685 40.1575C12.9248 40.5138 13.4081 40.714 13.912 40.714C14.2656 40.6773 14.6225 40.7356 14.9461 40.8827C15.2697 41.0298 15.5483 41.2605 15.7531 41.551C15.9019 41.8742 15.9617 42.2311 15.9266 42.5852C15.8914 42.9392 15.7625 43.2774 15.553 43.565C15.3032 44.0015 15.2366 44.5192 15.3678 45.0047C15.4991 45.4902 15.8174 45.9038 16.2531 46.155L17.984 47.145C18.2354 47.2947 18.5225 47.3738 18.8151 47.374C19.1075 47.3721 19.3945 47.2948 19.6484 47.1496C19.9022 47.0044 20.1143 46.7961 20.2641 46.545L20.3741 46.355C20.5178 46.0304 20.7458 45.7502 21.0343 45.5435C21.3229 45.3367 21.6615 45.2108 22.0151 45.179ZM37.0151 31.179C37.3697 31.2113 37.7095 31.3374 37.9993 31.5445C38.2891 31.7515 38.5186 32.0319 38.6641 32.357L38.7751 32.547C38.9242 32.7983 39.1359 33.0068 39.3894 33.152C39.643 33.2973 39.9299 33.3745 40.2221 33.376C40.5153 33.3763 40.8032 33.2972 41.0551 33.147L42.7851 32.157C43.0016 32.0339 43.1916 31.8689 43.3437 31.6716C43.4958 31.4744 43.6071 31.2488 43.6711 31.008C43.7372 30.7676 43.7548 30.5165 43.7228 30.2693C43.6909 30.0221 43.6101 29.7837 43.485 29.568C43.2756 29.2804 43.1466 28.9422 43.1115 28.5882C43.0763 28.2341 43.1363 27.8772 43.2851 27.554C43.4899 27.2638 43.7683 27.0334 44.0917 26.8865C44.4151 26.7396 44.7717 26.6814 45.125 26.718C45.629 26.718 46.1122 26.5178 46.4685 26.1615C46.8249 25.8052 47.0251 25.3219 47.0251 24.818V23.058C47.0198 22.554 46.8166 22.0723 46.4593 21.7168C46.1019 21.3613 45.6191 21.1606 45.115 21.158C44.7617 21.1949 44.4049 21.137 44.0813 20.9902C43.7578 20.8435 43.4791 20.6132 43.2741 20.323C43.1238 20.0005 43.0623 19.6438 43.0959 19.2896C43.1294 18.9354 43.2568 18.5965 43.465 18.308C43.5894 18.0919 43.6699 17.8534 43.7018 17.6061C43.7337 17.3588 43.7165 17.1076 43.651 16.867C43.587 16.6264 43.4758 16.4009 43.3237 16.2038C43.1715 16.0067 42.9816 15.8419 42.7651 15.719L41.0351 14.729C40.7834 14.5793 40.4959 14.5002 40.203 14.5C39.9107 14.5018 39.6237 14.5789 39.3699 14.724C39.1161 14.869 38.904 15.0771 38.7541 15.328L38.6441 15.519C38.5005 15.8438 38.2726 16.1243 37.9841 16.3313C37.6955 16.5382 37.3568 16.6642 37.0031 16.696C36.6487 16.6636 36.3092 16.5376 36.0196 16.3307C35.73 16.1239 35.5006 15.8437 35.355 15.519L35.2441 15.328C35.1001 15.076 34.8921 14.8666 34.6412 14.7208C34.3902 14.5751 34.1053 14.4982 33.8151 14.498C33.5226 14.4982 33.2354 14.5773 32.9841 14.727L31.2541 15.717C30.8171 15.9695 30.4979 16.385 30.3667 16.8724C30.2355 17.3597 30.3029 17.8792 30.554 18.317C30.7625 18.6023 30.891 18.9382 30.9262 19.2898C30.9614 19.6414 30.902 19.9961 30.7541 20.317C30.5493 20.6079 30.2706 20.8389 29.9468 20.9862C29.623 21.1335 29.2658 21.1918 28.912 21.155C28.4081 21.155 27.9248 21.3552 27.5685 21.7115C27.2122 22.0678 27.012 22.5511 27.012 23.055V24.815C27.012 25.3189 27.2122 25.8022 27.5685 26.1585C27.9248 26.5148 28.4081 26.715 28.912 26.715C29.2653 26.6784 29.6221 26.7366 29.9455 26.8835C30.2689 27.0304 30.5473 27.2608 30.7521 27.551C30.9009 27.8742 30.9607 28.2311 30.9256 28.5852C30.8904 28.9392 30.7615 29.2774 30.552 29.565C30.3025 30.0014 30.236 30.5188 30.3672 31.0041C30.4984 31.4894 30.8167 31.9028 31.2521 32.154L32.9821 33.144C33.2338 33.2938 33.5211 33.373 33.814 33.373C34.1063 33.371 34.3931 33.2936 34.6468 33.1484C34.9004 33.0032 35.1123 32.795 35.262 32.544L35.3721 32.354C35.5161 32.0293 35.7443 31.7491 36.0332 31.5424C36.3222 31.3358 36.6612 31.2103 37.0151 31.179ZM22.0151 41.187C21.1534 41.1859 20.3274 40.8432 19.7182 40.2339C19.1089 39.6247 18.7661 38.7986 18.7651 37.937C18.7658 37.0752 19.1085 36.2489 19.7178 35.6394C20.3271 35.0299 21.1533 34.6871 22.0151 34.686C22.877 34.6868 23.7035 35.0296 24.313 35.6391C24.9225 36.2486 25.2652 37.075 25.266 37.937C25.265 38.7988 24.9221 39.625 24.3127 40.2343C23.7032 40.8436 22.8769 41.1862 22.0151 41.187ZM37.0151 27.187C36.1534 27.1859 35.3274 26.8432 34.7182 26.2339C34.1089 25.6247 33.7661 24.7986 33.7651 23.937C33.7661 23.0754 34.1089 22.2493 34.7182 21.6401C35.3274 21.0308 36.1534 20.6881 37.0151 20.687C37.8767 20.6881 38.7027 21.0308 39.3119 21.6401C39.9212 22.2493 40.264 23.0754 40.2651 23.937C40.2637 24.7985 39.9209 25.6242 39.3117 26.2333C38.7025 26.8423 37.8765 27.1859 37.0151 27.187Z" fill="url(#paint0_linear_1_106)"/>
<defs>
<linearGradient id="paint0_linear_1_106" x1="0.0131226" y1="0.496033" x2="60.0171" y2="60.4698" gradientUnits="userSpaceOnUse">
<stop stop-color="#22ADEF"/>
<stop offset="1" stop-color="#9840F7"/>
</linearGradient>
</defs>
</svg>
