<svg width="60" height="61" viewBox="0 0 60 61" fill="none" xmlns="http://www.w3.org/2000/svg">
<path d="M42.5556 60.498H17.4456C14.9514 60.532 12.4703 60.13 10.1145 59.31C8.05742 58.5821 6.18629 57.4092 4.63455 55.875C3.10104 54.3198 1.92923 52.4457 1.20254 50.386C0.382658 48.0243 -0.0193445 45.5378 0.0145511 43.038V17.928C0.0145511 7.01401 6.53061 0.498007 17.4446 0.498007H42.5845C45.0802 0.464117 47.5626 0.86685 49.9196 1.68801C51.9769 2.41637 53.8478 3.59035 55.3986 5.126C56.9272 6.67819 58.0943 8.5487 58.8166 10.604C59.6302 12.9589 60.0254 15.4379 59.9845 17.929V43.069C59.9845 53.982 53.4686 60.498 42.5556 60.498ZM25.1145 16.498C22.702 16.5012 20.3893 17.4609 18.6834 19.1668C16.9775 20.8727 16.0177 23.1855 16.0146 25.598V35.298C16.0177 37.7105 16.9775 40.0233 18.6834 41.7292C20.3893 43.4351 22.702 44.3948 25.1145 44.398H34.8146C37.2271 44.3948 39.5399 43.4351 41.2458 41.7292C42.9516 40.0233 43.9114 37.7105 43.9146 35.298V25.598C43.9114 23.1855 42.9516 20.8727 41.2458 19.1668C39.5399 17.4609 37.2271 16.5012 34.8146 16.498H25.1145ZM34.8146 40.752H31.7896V32.276H40.2645V35.298C40.2638 36.7436 39.6894 38.1297 38.6676 39.1523C37.6458 40.1748 36.2602 40.7502 34.8146 40.752ZM28.1386 40.752H25.1126C23.6676 40.7504 22.2823 40.1757 21.2605 39.154C20.2388 38.1323 19.6641 36.7469 19.6625 35.302V32.276H28.1386V40.751V40.752ZM40.2915 28.652H31.7915V20.152H34.8166C36.2659 20.1625 37.6529 20.7429 38.6778 21.7678C39.7026 22.7926 40.2831 24.1797 40.2936 25.629V28.654L40.2915 28.652ZM28.1646 28.626H19.6646V25.598C19.6699 24.1497 20.2494 22.7626 21.2759 21.7409C22.3025 20.7193 23.6922 20.1464 25.1405 20.148H28.1665V28.623L28.1646 28.626Z" fill="url(#paint0_linear_1_103)"/>
<defs>
<linearGradient id="paint0_linear_1_103" x1="0.0125732" y1="0.496033" x2="57.2577" y2="60.4722" gradientUnits="userSpaceOnUse">
<stop stop-color="#16B8EE"/>
<stop offset="1" stop-color="#A336F7"/>
</linearGradient>
</defs>
</svg>
