<svg width="61" height="61" viewBox="0 0 61 61" fill="none" xmlns="http://www.w3.org/2000/svg">
<path d="M43.0849 0.5H17.9449C7.02489 0.5 0.514893 7.01 0.514893 17.93V43.04C0.514893 53.99 7.02489 60.5 17.9449 60.5H43.0549C53.9749 60.5 60.4849 53.99 60.4849 43.07V17.93C60.5149 7.01 54.0049 0.5 43.0849 0.5ZM17.4049 48.95C17.4049 49.5467 17.1678 50.119 16.7459 50.541C16.3239 50.9629 15.7516 51.2 15.1549 51.2C14.5582 51.2 13.9859 50.9629 13.5639 50.541C13.1419 50.119 12.9049 49.5467 12.9049 48.95V42.74C12.9049 42.1433 13.1419 41.571 13.5639 41.149C13.9859 40.7271 14.5582 40.49 15.1549 40.49C15.7516 40.49 16.3239 40.7271 16.7459 41.149C17.1678 41.571 17.4049 42.1433 17.4049 42.74V48.95ZM32.7649 48.95C32.7649 49.5467 32.5278 50.119 32.1059 50.541C31.6839 50.9629 31.1116 51.2 30.5149 51.2C29.9182 51.2 29.3459 50.9629 28.9239 50.541C28.5019 50.119 28.2649 49.5467 28.2649 48.95V36.5C28.2649 35.9033 28.5019 35.331 28.9239 34.909C29.3459 34.4871 29.9182 34.25 30.5149 34.25C31.1116 34.25 31.6839 34.4871 32.1059 34.909C32.5278 35.331 32.7649 35.9033 32.7649 36.5V48.95ZM48.1249 48.95C48.1249 49.5467 47.8878 50.119 47.4659 50.541C47.0439 50.9629 46.4716 51.2 45.8749 51.2C45.2782 51.2 44.7059 50.9629 44.2839 50.541C43.8619 50.119 43.6249 49.5467 43.6249 48.95V30.29C43.6249 29.6933 43.8619 29.121 44.2839 28.699C44.7059 28.2771 45.2782 28.04 45.8749 28.04C46.4716 28.04 47.0439 28.2771 47.4659 28.699C47.8878 29.121 48.1249 29.6933 48.1249 30.29V48.95ZM48.1249 20.81C48.1249 21.4067 47.8878 21.979 47.4659 22.401C47.0439 22.8229 46.4716 23.06 45.8749 23.06C45.2782 23.06 44.7059 22.8229 44.2839 22.401C43.8619 21.979 43.6249 21.4067 43.6249 20.81V17.9C36.0008 25.7651 26.3248 31.3358 15.6949 33.98C15.5194 34.0295 15.337 34.0498 15.1549 34.04C14.652 34.0376 14.1642 33.8685 13.7679 33.559C13.3715 33.2495 13.0891 32.8173 12.9649 32.33C12.8924 32.0424 12.8776 31.7432 12.9215 31.4498C12.9653 31.1564 13.0669 30.8746 13.2203 30.6208C13.3738 30.3669 13.576 30.146 13.8154 29.9707C14.0548 29.7955 14.3265 29.6695 14.6149 29.6C24.6478 27.098 33.7559 21.7788 40.8649 14.27H37.1149C36.5182 14.27 35.9459 14.0329 35.5239 13.611C35.1019 13.189 34.8649 12.6167 34.8649 12.02C34.8649 11.4233 35.1019 10.851 35.5239 10.429C35.9459 10.0071 36.5182 9.77 37.1149 9.77H45.9049C46.0249 9.77 46.1149 9.83 46.2349 9.83C46.3874 9.84551 46.5381 9.87565 46.6849 9.92C46.8311 9.98856 46.9716 10.0688 47.1049 10.16C47.1949 10.22 47.2849 10.25 47.3749 10.31C47.4049 10.34 47.4049 10.37 47.4349 10.37C47.5436 10.4825 47.6439 10.6028 47.7349 10.73C47.8257 10.8253 47.897 10.9374 47.9449 11.06C47.9923 11.1854 48.0226 11.3165 48.0349 11.45C48.082 11.6063 48.1122 11.7672 48.1249 11.93C48.1249 11.96 48.1549 11.99 48.1549 12.02V20.81H48.1249Z" fill="url(#paint0_linear_1_101)"/>
<defs>
<linearGradient id="paint0_linear_1_101" x1="0.514893" y1="0.5" x2="60.5138" y2="58.3701" gradientUnits="userSpaceOnUse">
<stop stop-color="#23ACEF"/>
<stop offset="1" stop-color="#9A3DF6"/>
</linearGradient>
</defs>
</svg>
