<svg width="60" height="61" viewBox="0 0 60 61" fill="none" xmlns="http://www.w3.org/2000/svg">
<path d="M17.4434 60.496C6.52436 60.496 0.0163574 53.987 0.0163574 43.035V17.925C0.0163574 7.00503 6.52436 0.496033 17.4434 0.496033H42.5833C53.5053 0.496033 60.0154 7.00503 59.9834 17.925V43.065C59.9834 53.987 53.4755 60.497 42.5535 60.497L17.4434 60.496ZM25.6343 18.855C24.1704 20.3181 23.1344 22.1534 22.6377 24.1625C22.141 26.1717 22.2028 28.2784 22.8164 30.255L15.7654 37.305C15.5023 37.6076 15.3029 37.9602 15.1792 38.3417C15.0555 38.7231 15.01 39.1256 15.0454 39.525L15.4924 42.794C15.6027 43.3502 15.8755 43.861 16.2764 44.2619C16.6773 44.6628 17.1883 44.9357 17.7444 45.046L21.0164 45.496C21.4202 45.5283 21.8262 45.4757 22.2085 45.3417C22.5908 45.2077 22.941 44.9953 23.2363 44.718L24.4663 43.487C24.5378 43.4195 24.5949 43.3382 24.6338 43.2479C24.6727 43.1576 24.6926 43.0603 24.6926 42.962C24.6926 42.8637 24.6727 42.7664 24.6338 42.6762C24.5949 42.5859 24.5378 42.5045 24.4663 42.437L21.5574 39.527C21.3478 39.3153 21.2302 39.0294 21.2302 38.7315C21.2302 38.4336 21.3478 38.1478 21.5574 37.936C21.7732 37.7343 22.0574 37.6222 22.3528 37.6222C22.6482 37.6222 22.9326 37.7343 23.1484 37.936L26.0574 40.846C26.2007 40.9774 26.3879 41.0502 26.5823 41.0502C26.7767 41.0502 26.9641 40.9774 27.1074 40.846L30.2864 37.697C32.2604 38.3148 34.3658 38.3815 36.375 37.8897C38.3842 37.398 40.2206 36.3666 41.6863 34.907C42.7415 33.8538 43.5787 32.6029 44.1499 31.2258C44.7211 29.8486 45.0151 28.3724 45.0151 26.8815C45.0151 25.3907 44.7211 23.9144 44.1499 22.5373C43.5787 21.1602 42.7415 19.9092 41.6863 18.856C39.5501 16.7334 36.6598 15.5442 33.6484 15.549C32.1609 15.5456 30.6873 15.8358 29.3123 16.4031C27.9372 16.9705 26.6866 17.8037 25.6343 18.855ZM30.0144 26.748C30.014 26.2555 30.1106 25.7676 30.2988 25.3124C30.4871 24.8572 30.7632 24.4436 31.1113 24.0951C31.4595 23.7467 31.8728 23.4703 32.3279 23.2817C32.7829 23.0931 33.2709 22.996 33.7634 22.996C34.2562 22.9958 34.7442 23.0926 35.1995 23.2811C35.6547 23.4696 36.0684 23.746 36.4167 24.0944C36.7651 24.4429 37.0414 24.8566 37.2297 25.312C37.4181 25.7673 37.5148 26.2553 37.5144 26.748C37.5143 27.2404 37.417 27.7278 37.2285 28.1826C37.04 28.6374 36.7637 29.0506 36.4155 29.3987C36.0673 29.7467 35.6541 30.0228 35.1992 30.211C34.7443 30.3993 34.2567 30.4962 33.7644 30.496C32.7703 30.4958 31.8169 30.1007 31.114 29.3976C30.4112 28.6946 30.0164 27.7412 30.0164 26.747L30.0144 26.748Z" fill="url(#paint0_linear_1_134)"/>
<defs>
<linearGradient id="paint0_linear_1_134" x1="0.0163574" y1="0.496033" x2="60.0173" y2="60.4632" gradientUnits="userSpaceOnUse">
<stop stop-color="#22ADEF"/>
<stop offset="1" stop-color="#9840F7"/>
</linearGradient>
</defs>
</svg>
