<svg width="60" height="61" viewBox="0 0 60 61" fill="none" xmlns="http://www.w3.org/2000/svg">
<path d="M42.5549 60.5H17.4458C6.5308 60.5 0.0148926 53.973 0.0148926 43.04V17.93C0.0148926 7.016 6.5308 0.5 17.4458 0.5H42.585C47.949 0.5 52.3789 2.1 55.3979 5.127C58.417 8.154 59.9979 12.578 59.9849 17.927V43.07C59.9859 53.984 53.4699 60.5 42.5549 60.5ZM23.7478 42.867L25.115 43.986L27.8909 45.914H32.656L35.4429 43.986L36.813 42.866L43.8669 44.806L45.896 37.925L43.7068 31.181L45.1489 29.501L44.5269 29.053L45.522 28.145L44.751 27.545L45.751 26.785L45.0908 26.285L46.1489 21.208L44.5688 16.492L34.479 20.262H26.0918L15.9919 16.492L14.4248 21.208L15.4829 26.285L14.8108 26.785L15.8108 27.545L15.052 28.145L16.0469 29.053L15.4248 29.501L16.8569 31.181L14.6919 37.925L16.7068 44.806L23.762 42.866L23.7478 42.867Z" fill="url(#paint0_linear_1_136)"/>
<defs>
<linearGradient id="paint0_linear_1_136" x1="0.0148926" y1="0.5" x2="57.2562" y2="60.4715" gradientUnits="userSpaceOnUse">
<stop stop-color="#16B8EE"/>
<stop offset="1" stop-color="#A336F7"/>
</linearGradient>
</defs>
</svg>
