<svg width="61" height="61" viewBox="0 0 61 61" fill="none" xmlns="http://www.w3.org/2000/svg">
<path d="M43.0851 0.496033H17.9451C7.02514 0.496033 0.515137 7.00603 0.515137 17.926V43.036C0.515137 53.986 7.02514 60.496 17.9451 60.496H43.0551C53.9751 60.496 60.4851 53.986 60.4851 43.066V17.926C60.5151 7.00603 54.0051 0.496033 43.0851 0.496033ZM45.1551 29.086C45.1551 29.643 44.9339 30.1771 44.5401 30.571C44.1462 30.9648 43.6121 31.186 43.0551 31.186C42.4982 31.186 41.964 30.9648 41.5702 30.571C41.1764 30.1771 40.9551 29.643 40.9551 29.086V28.546L32.7951 36.706C32.5779 36.9254 32.3141 37.0932 32.0233 37.197C31.7326 37.3009 31.4222 37.3381 31.1151 37.306C30.8053 37.281 30.5055 37.1839 30.2399 37.0224C29.9742 36.8609 29.75 36.6396 29.5851 36.376L26.5251 31.816L19.3851 38.956C19.1935 39.1503 18.9644 39.3037 18.7117 39.4068C18.459 39.51 18.188 39.5607 17.9151 39.556C17.3653 39.5572 16.8371 39.3416 16.4451 38.956C16.0559 38.5598 15.8377 38.0265 15.8377 37.471C15.8377 36.9156 16.0559 36.3823 16.4451 35.986L25.3851 27.046C25.6024 26.8267 25.8662 26.6589 26.1569 26.5551C26.4477 26.4512 26.7581 26.414 27.0651 26.446C27.375 26.4711 27.6747 26.5682 27.9404 26.7296C28.206 26.8911 28.4303 27.1125 28.5951 27.376L31.6551 31.936L37.9851 25.606H37.4451C37.1694 25.606 36.8963 25.5517 36.6415 25.4462C36.3867 25.3406 36.1552 25.186 35.9602 24.991C35.7652 24.796 35.6105 24.5645 35.505 24.3097C35.3995 24.0549 35.3451 23.7818 35.3451 23.506C35.3451 23.2303 35.3995 22.9572 35.505 22.7024C35.6105 22.4476 35.7652 22.2161 35.9602 22.0211C36.1552 21.8261 36.3867 21.6714 36.6415 21.5659C36.8963 21.4604 37.1694 21.406 37.4451 21.406H43.0251C43.3014 21.4122 43.5749 21.4628 43.8351 21.556C44.3503 21.7713 44.7599 22.1809 44.9751 22.696C45.0826 22.9522 45.1338 23.2284 45.1251 23.506V29.086H45.1551Z" fill="url(#paint0_linear_1_138)"/>
<defs>
<linearGradient id="paint0_linear_1_138" x1="0.515137" y1="0.496033" x2="57.7565" y2="60.4675" gradientUnits="userSpaceOnUse">
<stop stop-color="#16B8EE"/>
<stop offset="1" stop-color="#A336F7"/>
</linearGradient>
</defs>
</svg>
